<?xml version="1.0" encoding="UTF-8" standalone="no"?>
<!DOCTYPE svg PUBLIC "-//W3C//DTD SVG 1.1//EN" "http://www.w3.org/Graphics/SVG/1.1/DTD/svg11.dtd">
<svg width="100%" height="100%" viewBox="0 0 620 620" version="1.1" xmlns="http://www.w3.org/2000/svg" xmlns:xlink="http://www.w3.org/1999/xlink" xml:space="preserve" xmlns:serif="http://www.serif.com/" style="fill-rule:evenodd;clip-rule:evenodd;stroke-linejoin:round;stroke-miterlimit:2;">
    <g transform="matrix(1,0,0,1,-23.495,-23.495)">
        <path d="M281.16,631.88C270.32,635.55 258.57,629.73 254.9,618.9L220.08,515.95C216.41,505.11 222.23,493.36 233.06,489.69C243.9,486.02 255.65,491.84 259.32,502.67L294.14,605.62C297.81,616.46 291.99,628.21 281.16,631.88ZM348.08,587.38L300.11,445.56C296.44,434.72 284.69,428.91 273.85,432.58C263.01,436.25 257.2,448 260.87,458.84L308.84,600.66C312.51,611.5 324.26,617.31 335.1,613.64C345.94,609.97 351.75,598.22 348.08,587.38ZM402.35,569.03L341.29,388.51C337.62,377.67 325.87,371.86 315.03,375.53C304.19,379.2 298.38,390.95 302.05,401.79L363.11,582.31C366.78,593.15 378.53,598.96 389.37,595.29C400.21,591.62 406.02,579.87 402.35,569.03ZM521.79,533.92L419.59,496.96C408.83,493.07 396.96,498.64 393.07,509.39C389.18,520.15 394.75,532.02 405.5,535.91L507.7,572.87C518.46,576.76 530.33,571.19 534.22,560.44C538.11,549.68 532.54,537.81 521.79,533.92ZM541.16,480.37L400.38,429.45C389.62,425.56 377.75,431.13 373.86,441.88C369.97,452.64 375.54,464.51 386.29,468.4L527.07,519.32C537.83,523.21 549.7,517.64 553.59,506.89C557.48,496.13 551.91,484.26 541.16,480.37ZM560.64,426.5L381.43,361.68C370.67,357.79 358.8,363.36 354.91,374.11C351.02,384.87 356.59,396.74 367.34,400.63L546.55,465.45C557.31,469.34 569.18,463.77 573.07,453.02C576.96,442.26 571.39,430.39 560.64,426.5ZM607.66,311.23L515.04,368.09C505.29,374.07 502.24,386.83 508.22,396.58C514.2,406.33 526.96,409.38 536.71,403.4L629.33,346.54C639.08,340.56 642.13,327.8 636.15,318.05C630.17,308.3 617.41,305.25 607.66,311.23ZM577.87,262.7L450.28,341.02C440.53,347 437.48,359.76 443.46,369.51C449.44,379.26 462.2,382.31 471.95,376.33L599.54,298.01C609.29,292.03 612.34,279.27 606.36,269.52C600.38,259.77 587.62,256.72 577.87,262.7ZM547.9,213.88L385.49,313.58C375.74,319.56 372.69,332.32 378.67,342.07C384.65,351.82 397.41,354.87 407.16,348.89L569.57,249.19C579.32,243.21 582.37,230.45 576.39,220.7C570.41,210.95 557.65,207.9 547.9,213.88ZM487.09,105.25L473.79,213.11C472.39,224.46 480.46,234.8 491.81,236.2C503.16,237.6 513.5,229.53 514.9,218.18L528.2,110.32C529.6,98.97 521.53,88.63 510.18,87.23C498.83,85.83 488.49,93.9 487.09,105.25ZM430.58,98.28L412.27,246.86C410.87,258.21 418.94,268.55 430.29,269.95C441.64,271.35 451.98,263.28 453.38,251.93L471.69,103.35C473.09,92 465.02,81.66 453.67,80.26C442.32,78.86 431.98,86.93 430.58,98.28ZM373.72,91.27L350.41,280.41C349.01,291.76 357.08,302.1 368.43,303.5C379.78,304.9 390.12,296.83 391.52,285.48L414.83,96.34C416.23,84.99 408.16,74.65 396.81,73.25C385.46,71.85 375.12,79.92 373.72,91.27ZM250.87,71.08L326.91,148.72C334.91,156.89 348.03,157.03 356.2,149.03C364.37,141.03 364.51,127.91 356.51,119.74L280.47,42.1C272.47,33.93 259.35,33.79 251.18,41.79C243.01,49.79 242.87,62.91 250.87,71.08ZM210.19,110.92L314.94,217.88C322.94,226.05 336.06,226.19 344.23,218.19C352.4,210.19 352.54,197.07 344.54,188.9L239.79,81.94C231.79,73.77 218.67,73.63 210.5,81.63C202.33,89.63 202.19,102.75 210.19,110.92ZM169.26,151L302.6,287.15C310.6,295.32 323.72,295.46 331.89,287.46C340.06,279.46 340.2,266.34 332.2,258.17L198.87,122.02C190.87,113.85 177.75,113.71 169.58,121.71C161.41,129.71 161.27,142.83 169.27,151L169.26,151ZM76.88,234.46L184.99,223.42C196.37,222.26 204.65,212.09 203.49,200.71C202.33,189.33 192.16,181.05 180.78,182.21L72.67,193.25C61.29,194.41 53.01,204.58 54.17,215.96C55.33,227.34 65.5,235.62 76.88,234.46ZM82.66,291.11L231.59,275.9C242.97,274.74 251.25,264.57 250.09,253.19C248.93,241.81 238.76,233.53 227.38,234.69L78.45,249.9C67.07,251.06 58.79,261.23 59.95,272.61C61.11,283.99 71.28,292.27 82.66,291.11ZM88.48,348.1L278.06,328.74C289.44,327.58 297.72,317.41 296.56,306.03C295.4,294.65 285.23,286.37 273.85,287.53L84.27,306.89C72.89,308.05 64.61,318.22 65.77,329.6C66.93,340.98 77.1,349.26 88.48,348.1ZM96.13,472.36L154.91,380.95C161.1,371.33 158.31,358.51 148.69,352.33C139.07,346.14 126.25,348.93 120.07,358.55L61.29,449.96C55.1,459.58 57.89,472.4 67.51,478.58C77.13,484.77 89.95,481.98 96.13,472.36ZM144.02,503.16L224.99,377.24C231.18,367.62 228.39,354.8 218.77,348.62C209.15,342.43 196.33,345.22 190.15,354.84L109.18,480.76C102.99,490.38 105.78,503.2 115.4,509.38C125.02,515.57 137.84,512.78 144.02,503.16ZM192.2,534.14L295.27,373.85C301.46,364.23 298.67,351.41 289.05,345.23C279.43,339.04 266.61,341.83 260.43,351.45L157.36,511.74C151.17,521.36 153.96,534.18 163.58,540.36C173.2,546.55 186.02,543.76 192.2,534.14Z" style="fill:url(#_Linear1);fill-rule:nonzero;"/>
    </g>
    <defs>
        <linearGradient id="_Linear1" x1="0" y1="0" x2="1" y2="0" gradientUnits="userSpaceOnUse" gradientTransform="matrix(85.03,590.62,-590.62,85.03,297.07,36.97)"><stop offset="0" style="stop-color:rgb(0,175,230);stop-opacity:1"/><stop offset="0.11" style="stop-color:rgb(13,176,220);stop-opacity:1"/><stop offset="0.5" style="stop-color:rgb(54,182,189);stop-opacity:1"/><stop offset="0.81" style="stop-color:rgb(79,186,170);stop-opacity:1"/><stop offset="1" style="stop-color:rgb(89,188,163);stop-opacity:1"/></linearGradient>
    </defs>
</svg>
