<?xml version="1.0" standalone="no"?>
<!DOCTYPE svg PUBLIC "-//W3C//DTD SVG 20010904//EN"
 "http://www.w3.org/TR/2001/REC-SVG-20010904/DTD/svg10.dtd">
<svg version="1.0" xmlns="http://www.w3.org/2000/svg"
 width="2709.000000pt" height="2709.000000pt" viewBox="0 0 2709.000000 2709.000000"
 preserveAspectRatio="xMidYMid meet">
<metadata>
Created by potrace 1.14, written by Peter Selinger 2001-2017
</metadata>
<g transform="translate(0.000000,2709.000000) scale(0.100000,-0.100000)"
fill="#000000" stroke="none">
<path d="M10496 26039 c-316 -77 -561 -322 -640 -641 -19 -75 -23 -115 -21
-208 2 -63 6 -128 9 -145 34 -152 78 -254 157 -361 20 -28 131 -146 246 -263
114 -117 264 -270 331 -340 68 -69 281 -286 472 -481 191 -195 401 -410 466
-476 66 -67 279 -285 474 -484 195 -199 413 -421 484 -494 577 -590 853 -866
894 -894 391 -263 906 -179 1189 193 66 87 126 219 153 335 15 67 21 255 10
307 -5 21 -11 53 -15 71 -15 88 -81 233 -145 318 -21 28 -139 154 -262 279
-123 125 -270 276 -328 335 -58 59 -265 271 -460 470 -195 199 -407 415 -470
480 -63 65 -273 279 -466 477 -194 197 -405 413 -470 479 -643 657 -837 853
-887 891 -73 57 -191 115 -287 143 -107 31 -323 36 -434 9z"/>
<path d="M16020 24513 c-170 -20 -281 -52 -382 -109 -254 -144 -409 -377 -443
-664 -3 -30 -8 -66 -10 -80 -2 -14 -6 -50 -10 -80 -4 -30 -8 -66 -10 -80 -3
-23 -6 -44 -20 -170 -3 -25 -7 -56 -10 -70 -2 -14 -7 -50 -10 -80 -3 -30 -10
-86 -15 -125 -5 -38 -12 -92 -15 -120 -9 -78 -23 -195 -30 -245 -2 -14 -7 -54
-10 -90 -4 -36 -9 -74 -11 -85 -2 -11 -6 -45 -10 -75 -3 -30 -7 -66 -9 -80 -2
-14 -7 -52 -11 -85 -3 -33 -8 -67 -9 -75 -2 -8 -6 -46 -10 -85 -4 -38 -9 -77
-10 -85 -3 -14 -11 -85 -21 -162 -6 -57 -28 -229 -39 -318 -3 -19 -7 -57 -10
-85 -3 -27 -8 -61 -10 -75 -2 -14 -7 -50 -10 -80 -3 -30 -8 -66 -10 -80 -2
-14 -7 -54 -10 -90 -4 -36 -9 -73 -11 -84 -2 -10 -6 -44 -9 -75 -4 -31 -8 -67
-10 -81 -4 -25 -22 -169 -31 -250 -2 -25 -7 -54 -9 -65 -2 -11 -7 -48 -10 -81
-3 -34 -7 -69 -9 -80 -2 -10 -7 -48 -11 -84 -3 -36 -8 -76 -10 -90 -2 -14 -7
-50 -10 -80 -3 -30 -8 -66 -10 -80 -2 -14 -6 -47 -10 -75 -3 -27 -8 -66 -10
-85 -3 -19 -8 -60 -11 -90 -3 -30 -7 -66 -9 -80 -4 -24 -11 -80 -19 -150 -3
-19 -8 -62 -12 -95 -3 -33 -8 -67 -9 -75 -2 -8 -6 -44 -10 -80 -4 -36 -9 -74
-11 -85 -2 -11 -6 -47 -9 -80 -3 -33 -8 -67 -10 -75 -2 -8 -7 -49 -10 -90 -4
-41 -8 -77 -10 -80 -2 -3 -6 -34 -10 -70 -3 -36 -8 -76 -10 -90 -6 -38 -13
-99 -20 -160 -4 -30 -8 -66 -10 -80 -2 -14 -6 -50 -10 -80 -5 -52 -12 -105
-20 -160 -2 -14 -7 -50 -10 -80 -3 -30 -8 -71 -10 -90 -14 -109 -36 -291 -41
-330 -3 -25 -7 -56 -9 -70 -2 -14 -7 -52 -10 -85 -4 -33 -8 -71 -10 -85 -16
-115 -23 -173 -30 -246 -3 -25 -7 -57 -9 -72 -3 -15 -7 -47 -10 -72 -3 -25
-10 -85 -16 -135 -6 -49 -13 -101 -15 -115 -9 -68 -18 -137 -30 -255 -3 -27
-8 -61 -10 -75 -5 -25 -7 -42 -20 -160 -4 -36 -9 -72 -10 -80 -1 -8 -6 -44
-10 -80 -3 -36 -8 -76 -10 -90 -5 -34 -23 -172 -30 -239 -4 -30 -9 -63 -11
-75 -7 -33 -6 -166 1 -221 14 -103 53 -219 104 -310 126 -223 319 -365 581
-426 136 -32 366 -10 502 48 66 28 154 78 176 100 7 7 17 13 21 13 18 0 150
144 196 215 81 124 124 249 140 405 4 36 9 74 11 85 2 11 6 45 9 75 3 30 8 66
10 80 3 14 7 50 10 80 3 30 7 64 9 75 2 11 7 49 11 85 4 36 8 72 10 80 1 8 6
44 10 80 9 89 19 171 30 250 2 14 6 50 10 80 4 30 8 66 10 80 2 14 7 50 10 80
3 30 8 66 10 80 2 14 6 50 10 80 4 30 8 66 10 80 2 14 6 50 10 80 3 30 8 66
10 80 2 14 7 54 11 90 3 36 7 72 9 80 3 14 12 86 20 160 2 19 9 71 14 115 6
44 13 104 16 134 4 30 8 61 10 70 1 9 6 45 10 81 3 36 9 78 11 95 3 16 7 50 9
75 3 25 7 59 9 75 2 17 7 55 10 85 16 135 19 157 32 250 11 81 13 103 19 159
3 31 7 65 9 76 2 11 7 47 10 80 4 33 8 71 11 85 2 14 7 46 10 73 13 113 17
147 26 222 6 44 12 91 14 105 2 14 7 54 10 90 4 36 9 72 10 80 2 8 6 42 9 75
4 33 9 71 11 85 4 28 12 94 20 168 5 42 10 77 20 152 2 14 6 48 10 75 3 28 10
84 15 125 5 41 12 102 16 135 3 33 8 69 10 80 2 10 6 49 10 85 3 36 7 67 9 70
2 3 6 39 10 80 4 41 9 83 10 92 2 9 6 44 10 77 3 33 8 70 10 82 3 12 7 47 10
78 3 31 7 67 10 81 5 29 14 107 20 170 3 25 7 61 10 80 3 19 8 53 10 75 3 22
12 94 20 160 8 66 17 138 20 160 2 22 12 96 20 165 9 69 18 139 20 156 1 17 6
56 9 85 4 30 9 71 12 92 6 56 14 118 19 157 3 19 7 54 10 78 3 23 7 59 10 80
2 20 7 57 10 82 3 25 7 61 10 80 2 19 7 59 10 89 4 30 8 62 10 72 2 10 7 49
10 86 4 37 8 75 10 83 2 8 7 42 10 75 3 33 19 157 34 275 45 351 32 492 -64
685 -80 161 -208 291 -368 375 -63 34 -168 74 -179 70 -2 -1 -15 3 -30 9 -16
6 -63 13 -105 16 -43 4 -82 7 -88 9 -5 1 -21 1 -35 -1z"/>
<path d="M8792 24375 c-164 -42 -286 -112 -404 -232 -80 -80 -129 -150 -173
-247 -76 -167 -96 -342 -60 -537 18 -101 82 -244 150 -333 24 -33 194 -213
378 -400 184 -188 381 -388 437 -446 56 -58 269 -276 474 -484 204 -208 418
-427 476 -486 58 -59 268 -273 466 -476 199 -203 417 -425 484 -494 67 -69
279 -285 470 -480 191 -195 398 -407 460 -470 651 -668 858 -873 925 -919 104
-72 221 -120 360 -146 17 -3 78 -5 137 -5 387 2 710 248 824 627 23 76 27 107
28 228 0 154 -13 222 -67 350 -63 149 -57 143 -688 787 -191 194 -399 407
-464 473 -64 66 -287 293 -494 504 -207 211 -473 484 -592 605 -119 122 -275
280 -345 353 -71 72 -286 292 -479 488 -192 196 -406 414 -474 484 -229 234
-825 842 -946 965 -152 154 -260 229 -395 272 -156 50 -337 57 -488 19z"/>
<path d="M18317 24214 c-1 -1 -20 -4 -42 -7 -118 -16 -296 -97 -401 -183 -130
-106 -252 -301 -288 -459 -15 -67 -49 -312 -61 -440 -3 -33 -8 -67 -10 -75 -2
-8 -7 -42 -10 -76 -3 -33 -7 -71 -10 -85 -4 -27 -14 -102 -20 -164 -5 -47 -16
-134 -20 -155 -2 -8 -6 -44 -10 -80 -3 -36 -8 -72 -10 -80 -2 -8 -7 -49 -10
-90 -4 -41 -8 -77 -10 -80 -1 -3 -6 -35 -9 -72 -4 -37 -9 -77 -11 -90 -2 -13
-9 -67 -15 -122 -7 -54 -13 -106 -15 -115 -1 -9 -6 -47 -10 -84 -3 -37 -8 -76
-10 -85 -1 -9 -6 -46 -10 -82 -4 -36 -8 -72 -10 -80 -2 -8 -6 -44 -10 -80 -3
-36 -8 -72 -10 -80 -2 -8 -7 -44 -10 -80 -4 -36 -8 -72 -10 -80 -2 -8 -6 -44
-10 -80 -3 -36 -8 -76 -10 -90 -6 -41 -14 -102 -20 -160 -3 -30 -8 -66 -10
-80 -2 -14 -7 -50 -10 -80 -3 -30 -8 -66 -10 -80 -2 -14 -7 -50 -10 -80 -8
-76 -15 -131 -20 -160 -2 -14 -7 -54 -10 -90 -3 -36 -8 -76 -10 -90 -2 -14 -7
-43 -9 -65 -9 -72 -15 -119 -20 -160 -11 -81 -17 -131 -21 -165 -7 -66 -15
-125 -20 -160 -3 -19 -7 -55 -10 -80 -6 -62 -25 -219 -30 -250 -5 -36 -17
-121 -20 -150 -6 -55 -16 -146 -20 -170 -2 -14 -6 -52 -10 -85 -3 -33 -8 -76
-11 -95 -12 -89 -14 -108 -20 -155 -3 -27 -7 -61 -9 -75 -2 -14 -7 -52 -11
-85 -3 -33 -8 -68 -9 -77 -2 -9 -7 -48 -10 -85 -4 -37 -8 -75 -10 -83 -2 -8
-7 -40 -10 -70 -3 -30 -10 -89 -15 -130 -5 -41 -12 -95 -15 -120 -3 -25 -7
-56 -10 -70 -2 -14 -7 -54 -11 -90 -3 -36 -7 -72 -9 -80 -2 -9 -6 -46 -9 -82
-4 -37 -9 -75 -11 -86 -2 -10 -6 -45 -9 -78 -4 -32 -8 -66 -11 -74 -7 -27 -18
-154 -18 -215 -2 -388 263 -734 640 -837 116 -31 326 -31 442 0 156 42 319
141 424 256 93 103 179 272 203 401 2 11 6 31 8 45 3 14 8 50 11 81 3 31 7 65
9 75 2 11 7 50 11 87 3 37 8 76 10 85 2 16 10 77 21 165 6 52 14 116 19 157 2
19 7 59 11 89 3 30 7 61 9 70 1 9 6 43 9 76 8 71 15 127 21 175 3 19 8 58 11
85 3 28 7 61 9 75 2 14 7 50 10 80 3 30 8 66 10 80 2 14 6 50 10 80 3 30 8 66
10 80 3 14 7 50 9 80 3 30 10 87 15 125 5 39 12 95 16 125 3 30 8 66 10 80 6
41 15 122 20 165 2 22 6 54 9 70 2 17 8 55 11 85 3 30 8 66 10 80 2 14 7 54
10 90 4 36 8 72 10 80 2 8 6 44 10 80 4 36 8 72 10 80 2 8 6 44 10 80 4 36 8
72 10 80 2 8 6 44 10 80 3 36 8 76 10 90 2 14 9 66 15 115 10 90 16 132 25
203 3 20 7 62 10 92 3 30 7 62 10 70 2 8 7 44 10 80 4 36 8 76 10 90 6 40 34
260 40 320 3 30 8 66 10 80 2 14 7 50 10 80 4 30 9 71 12 90 2 19 6 51 8 70 2
19 8 71 14 115 15 119 25 197 36 295 3 30 8 66 10 80 2 14 6 45 9 70 28 229
67 551 70 575 3 17 8 57 12 90 3 33 8 67 9 75 2 8 6 47 11 85 4 39 8 72 9 75
1 3 5 39 9 80 5 41 10 84 12 95 30 159 46 431 31 523 -69 428 -436 737 -870
730 -48 -1 -88 -2 -90 -4z"/>
<path d="M20660 23923 c-193 -32 -369 -122 -500 -255 -43 -44 -150 -187 -150
-201 0 -3 -10 -26 -22 -53 -12 -27 -23 -51 -23 -54 -1 -3 -9 -30 -18 -60 -9
-30 -19 -75 -22 -100 -3 -25 -8 -56 -10 -70 -2 -14 -7 -50 -10 -80 -8 -78 -16
-141 -21 -170 -2 -14 -6 -50 -9 -80 -4 -30 -10 -82 -15 -115 -5 -33 -12 -87
-15 -120 -3 -33 -7 -69 -9 -80 -2 -11 -7 -47 -10 -80 -4 -33 -9 -71 -11 -85
-2 -14 -6 -50 -10 -81 -3 -31 -7 -65 -9 -75 -2 -11 -7 -53 -11 -94 -4 -41 -8
-77 -10 -80 -1 -3 -6 -36 -10 -73 -3 -37 -8 -77 -10 -87 -2 -10 -6 -46 -10
-79 -3 -33 -7 -68 -9 -78 -2 -10 -7 -45 -10 -78 -4 -33 -9 -71 -11 -85 -2 -14
-6 -52 -10 -85 -4 -32 -8 -66 -10 -75 -1 -8 -6 -46 -10 -83 -3 -37 -8 -76 -10
-85 -1 -9 -6 -46 -10 -82 -3 -36 -8 -72 -10 -80 -2 -8 -7 -44 -10 -80 -4 -36
-8 -72 -10 -80 -1 -8 -6 -44 -10 -80 -3 -36 -8 -76 -10 -90 -2 -14 -7 -48 -10
-76 -3 -28 -7 -59 -9 -70 -2 -10 -7 -50 -11 -87 -3 -37 -8 -77 -10 -87 -2 -10
-6 -45 -10 -77 -3 -33 -7 -70 -10 -84 -2 -13 -6 -49 -9 -79 -4 -30 -8 -66 -10
-80 -5 -30 -14 -96 -21 -165 -6 -51 -22 -185 -30 -240 -2 -16 -7 -57 -10 -90
-4 -33 -10 -87 -15 -120 -5 -33 -12 -87 -15 -120 -4 -33 -8 -71 -10 -85 -2
-14 -6 -50 -10 -80 -4 -30 -8 -66 -10 -80 -2 -14 -7 -50 -10 -80 -3 -30 -8
-66 -10 -80 -2 -14 -7 -50 -10 -80 -4 -30 -10 -83 -15 -118 -10 -75 -10 -234
1 -282 4 -19 10 -49 13 -66 13 -70 70 -197 129 -286 102 -151 307 -297 477
-340 62 -15 73 -17 124 -24 316 -41 631 98 818 361 67 95 126 236 142 341 3
21 8 50 11 64 2 14 7 52 10 85 3 33 10 89 15 125 5 36 12 90 15 120 3 30 8 66
10 80 2 14 7 54 10 90 4 36 8 72 10 80 1 8 6 44 10 80 4 36 9 74 11 85 2 11 6
49 9 85 3 36 8 72 10 80 2 8 7 40 10 70 3 30 12 105 20 165 8 61 17 133 20
160 12 109 25 211 31 247 2 15 6 47 9 72 5 51 14 126 20 176 10 71 15 108 30
235 9 72 18 147 20 168 8 61 15 114 20 160 3 23 8 58 10 77 3 19 7 60 10 90 3
30 8 66 10 80 2 14 7 50 10 80 3 30 8 66 10 80 2 14 7 50 10 80 3 30 8 66 10
80 2 14 6 50 10 81 3 31 7 65 9 75 2 11 7 51 10 89 4 39 9 77 11 85 2 8 6 42
10 75 3 33 8 67 10 75 2 8 6 44 9 80 3 36 8 74 10 85 2 11 7 47 10 80 4 33 8
71 11 85 2 14 6 45 9 70 6 47 23 191 32 270 3 25 7 56 9 70 2 14 7 52 11 85 3
33 8 68 9 77 2 9 7 48 10 85 4 37 9 71 11 75 2 3 4 51 5 105 1 243 -88 455
-265 628 -113 110 -280 202 -405 221 -20 3 -40 8 -45 11 -10 7 -231 11 -266 6z"/>
<path d="M7298 22736 c-1 -2 -34 -6 -73 -9 -104 -9 -143 -17 -213 -43 -261
-98 -447 -285 -533 -538 -34 -101 -41 -137 -44 -256 -5 -154 22 -277 90 -412
53 -106 105 -168 321 -388 111 -113 252 -257 314 -320 62 -63 273 -279 469
-479 196 -200 410 -419 476 -486 66 -68 283 -289 481 -492 199 -202 414 -422
479 -488 101 -103 279 -285 940 -960 266 -271 817 -834 935 -955 676 -692 874
-893 1120 -1140 283 -284 286 -286 385 -337 151 -76 239 -97 410 -97 122 0
152 4 228 27 158 47 262 108 376 220 161 158 251 371 253 597 2 157 -19 256
-84 390 -50 104 -101 171 -248 320 -61 63 -269 275 -460 470 -191 195 -403
411 -470 480 -67 69 -279 285 -470 480 -191 195 -406 414 -477 487 -70 72
-290 297 -488 498 -198 202 -407 416 -465 475 -58 59 -267 273 -465 475 -198
202 -409 417 -469 479 -60 61 -272 278 -471 481 -200 204 -423 432 -496 507
-502 514 -805 817 -841 843 -129 91 -272 146 -418 160 -36 4 -70 8 -77 10 -6
2 -13 2 -15 1z"/>
<path d="M7148 19965 c-1 -2 -37 -6 -78 -9 -41 -4 -91 -9 -110 -11 -19 -2 -64
-7 -100 -10 -36 -4 -76 -8 -90 -10 -14 -2 -56 -7 -95 -10 -38 -4 -81 -8 -95
-10 -120 -12 -208 -21 -300 -29 -41 -4 -86 -9 -100 -11 -14 -2 -56 -7 -94 -10
-38 -3 -80 -7 -95 -10 -14 -2 -61 -7 -105 -10 -43 -3 -81 -7 -85 -9 -3 -2 -44
-7 -91 -10 -47 -4 -98 -9 -115 -11 -16 -2 -61 -7 -100 -10 -38 -4 -83 -8 -100
-10 -32 -4 -100 -11 -200 -20 -33 -3 -76 -8 -95 -10 -19 -2 -62 -7 -95 -10
-62 -6 -125 -13 -185 -20 -19 -2 -66 -7 -105 -10 -38 -4 -81 -8 -95 -10 -14
-2 -59 -7 -100 -10 -41 -3 -86 -7 -100 -9 -14 -3 -56 -7 -95 -11 -38 -3 -86
-8 -105 -10 -19 -3 -62 -7 -95 -10 -33 -3 -78 -8 -99 -10 -21 -2 -69 -6 -105
-10 -36 -3 -79 -8 -96 -10 -38 -5 -140 -16 -185 -20 -44 -4 -153 -15 -200 -20
-19 -2 -64 -7 -100 -10 -36 -3 -76 -8 -90 -10 -14 -2 -61 -6 -105 -10 -44 -3
-91 -8 -105 -10 -14 -2 -56 -6 -95 -10 -38 -3 -81 -8 -95 -10 -14 -2 -51 -6
-83 -9 -188 -19 -188 -19 -266 -42 -333 -96 -579 -387 -617 -731 -31 -280 69
-546 276 -735 175 -160 400 -238 644 -224 59 3 111 8 115 10 3 2 44 7 91 10
47 4 99 9 115 11 17 2 62 7 100 10 39 4 84 8 100 10 34 4 111 12 200 20 33 3
76 8 95 10 19 3 62 8 95 11 33 3 76 8 95 9 19 2 60 6 90 9 30 3 78 8 105 11
61 7 124 13 190 19 134 14 229 23 295 31 19 3 64 7 100 10 36 3 74 7 85 9 11
2 60 7 109 11 50 4 97 8 105 10 9 1 52 6 95 10 43 4 86 8 95 10 9 1 52 6 96
10 44 3 94 8 110 10 29 4 105 12 190 20 80 8 161 16 195 20 66 8 180 19 290
30 30 3 75 7 100 10 42 5 94 10 195 20 126 12 173 17 195 20 14 2 60 6 103 10
43 3 86 8 95 10 9 1 51 6 92 9 41 4 89 9 105 11 17 2 55 7 85 9 30 3 82 8 115
11 33 3 76 8 95 10 19 2 64 7 100 10 145 13 189 21 275 50 117 40 140 51 247
128 154 111 270 283 324 482 22 82 27 291 9 375 -46 212 -149 382 -311 511
-90 71 -230 140 -334 164 -63 15 -291 30 -302 20z"/>
<path d="M22847 18774 c-1 -1 -25 -5 -53 -9 -42 -5 -95 -17 -169 -39 -67 -20
-255 -125 -465 -261 -45 -30 -375 -232 -417 -256 -17 -10 -51 -30 -75 -46 -47
-30 -56 -35 -120 -74 -24 -14 -151 -92 -283 -174 -132 -81 -251 -154 -265
-162 -14 -8 -37 -22 -52 -31 -56 -35 -316 -195 -388 -239 -41 -25 -102 -62
-135 -83 -33 -20 -103 -63 -155 -95 -52 -32 -111 -68 -130 -80 -19 -12 -118
-73 -220 -135 -102 -62 -207 -127 -235 -145 -70 -44 -580 -358 -603 -370 -10
-5 -69 -42 -132 -81 -214 -132 -275 -169 -293 -179 -25 -14 -722 -442 -782
-480 -27 -18 -162 -101 -300 -185 -137 -84 -272 -167 -300 -184 -27 -17 -57
-35 -67 -41 -10 -5 -44 -26 -75 -46 -32 -20 -368 -227 -748 -459 -379 -233
-717 -442 -750 -465 -300 -212 -431 -606 -319 -959 85 -267 281 -468 545 -559
100 -35 153 -42 294 -41 197 1 298 35 531 179 18 11 108 66 201 123 92 57 222
137 288 178 66 41 147 90 180 110 33 19 98 59 145 88 47 28 227 139 400 245
173 106 342 210 375 231 81 51 1102 678 1140 700 17 10 109 66 205 125 96 60
222 137 280 173 58 35 132 81 165 102 33 21 231 142 440 270 209 128 505 310
658 404 153 94 293 180 311 191 149 89 232 141 234 148 2 4 7 7 12 7 9 0 406
241 427 260 7 5 14 10 17 10 2 0 80 47 173 104 92 56 357 219 588 361 507 311
513 315 589 390 118 116 204 274 239 440 22 100 16 296 -11 398 -91 338 -382
590 -729 633 -49 6 -163 11 -166 8z"/>
<path d="M9157 17784 c-1 -1 -40 -5 -86 -9 -47 -4 -92 -8 -100 -10 -9 -1 -52
-6 -95 -10 -43 -4 -86 -8 -95 -10 -9 -1 -52 -6 -96 -9 -44 -4 -91 -9 -105 -11
-14 -2 -56 -6 -95 -9 -38 -4 -86 -8 -105 -11 -19 -2 -62 -7 -95 -11 -33 -3
-76 -8 -95 -10 -19 -1 -62 -6 -95 -9 -65 -7 -108 -11 -195 -19 -30 -3 -73 -7
-95 -10 -22 -3 -69 -8 -105 -11 -36 -4 -81 -8 -100 -10 -19 -2 -64 -6 -100
-10 -36 -3 -81 -8 -100 -10 -19 -2 -64 -7 -100 -10 -36 -4 -76 -8 -90 -10 -14
-2 -59 -7 -100 -10 -41 -4 -86 -9 -100 -10 -14 -2 -57 -6 -96 -9 -39 -4 -80
-8 -90 -10 -10 -2 -55 -7 -99 -11 -44 -3 -91 -8 -105 -10 -14 -2 -54 -6 -90
-10 -36 -3 -81 -8 -100 -10 -19 -2 -60 -6 -90 -9 -63 -6 -147 -15 -205 -21
-22 -2 -71 -7 -110 -10 -38 -4 -81 -8 -95 -10 -14 -3 -56 -7 -95 -10 -38 -3
-81 -8 -95 -10 -14 -2 -60 -7 -102 -10 -43 -3 -86 -8 -96 -10 -10 -2 -56 -6
-103 -10 -46 -4 -91 -8 -100 -10 -8 -2 -48 -6 -88 -10 -40 -3 -81 -8 -92 -10
-10 -2 -52 -6 -92 -10 -39 -3 -88 -7 -107 -9 -54 -7 -159 -18 -199 -21 -20 -1
-65 -6 -100 -10 -35 -4 -80 -8 -100 -10 -82 -7 -168 -16 -191 -20 -14 -2 -59
-7 -100 -10 -120 -11 -186 -17 -290 -30 -19 -3 -67 -7 -105 -10 -39 -3 -80 -7
-91 -9 -11 -2 -58 -7 -105 -11 -46 -4 -91 -8 -100 -10 -9 -2 -52 -6 -95 -10
-43 -3 -90 -8 -104 -10 -14 -3 -52 -7 -85 -10 -33 -3 -76 -8 -95 -10 -19 -3
-64 -7 -100 -10 -36 -3 -81 -7 -100 -10 -19 -2 -64 -7 -99 -10 -355 -34 -645
-278 -752 -630 -30 -99 -35 -324 -9 -422 50 -188 113 -299 245 -428 121 -119
271 -198 440 -230 66 -13 263 -13 355 0 50 7 138 16 190 21 25 2 63 6 85 8 22
3 72 8 110 11 39 4 81 8 95 10 14 2 61 7 105 11 44 3 87 8 96 9 8 2 53 6 100
10 46 4 91 8 99 10 14 3 89 10 195 21 28 2 66 7 85 9 19 2 62 7 95 10 33 3 80
8 105 10 25 2 72 7 105 10 33 3 76 8 95 10 19 3 62 7 95 10 33 3 76 7 95 10
34 4 93 10 208 20 31 3 73 8 92 10 19 3 66 8 103 11 37 3 76 7 85 9 9 1 53 6
97 10 44 4 91 8 105 10 14 2 59 7 100 10 41 3 86 8 100 10 14 2 54 6 90 10 77
7 151 14 200 20 19 2 64 7 100 10 36 4 76 8 90 10 14 2 59 7 100 10 41 3 86 8
100 10 14 2 59 6 100 10 41 4 86 8 100 10 14 2 54 6 90 10 36 3 81 8 100 10
19 2 67 7 105 10 39 3 81 8 95 10 34 5 124 14 190 20 30 3 75 7 100 10 25 3
69 7 97 10 130 13 160 16 193 20 19 2 64 7 100 10 94 9 160 15 200 20 19 2
109 11 200 20 91 9 176 18 190 20 14 2 57 7 95 10 39 3 86 8 105 10 19 2 64 7
100 10 36 4 81 9 100 11 19 2 62 6 95 9 33 3 76 8 95 10 19 3 60 7 90 10 30 3
75 7 100 10 25 3 70 7 100 10 226 21 397 97 547 242 137 132 229 309 257 495
8 52 9 206 1 253 -60 385 -372 687 -752 730 -64 7 -133 12 -136 9z"/>
<path d="M23995 16724 c-75 -15 -117 -28 -208 -68 -21 -9 -136 -76 -255 -150
-119 -73 -347 -213 -507 -311 -159 -97 -306 -187 -325 -199 -116 -74 -203
-126 -211 -126 -5 0 -9 -4 -9 -10 0 -5 -4 -10 -9 -10 -8 0 -454 -270 -571
-345 -19 -12 -118 -73 -220 -135 -102 -62 -207 -127 -235 -145 -27 -18 -81
-51 -120 -74 -38 -24 -106 -65 -150 -92 -44 -27 -114 -70 -155 -95 -41 -25
-104 -64 -140 -86 -36 -22 -126 -77 -200 -123 -74 -45 -160 -97 -190 -116 -31
-19 -64 -39 -75 -46 -11 -6 -141 -86 -290 -178 -148 -92 -279 -172 -290 -178
-11 -7 -42 -26 -70 -43 -27 -17 -309 -190 -625 -384 -316 -194 -631 -387 -699
-429 -145 -90 -239 -172 -308 -273 -68 -99 -122 -221 -138 -313 -4 -22 -9 -50
-11 -63 -14 -74 -10 -194 11 -310 28 -161 162 -374 306 -487 64 -50 154 -104
176 -106 5 0 13 -5 19 -10 17 -14 166 -57 224 -64 172 -22 357 7 493 77 34 18
109 61 167 96 305 188 922 566 1035 635 72 44 141 87 155 96 14 9 34 21 45 28
11 6 173 105 359 220 187 114 387 237 446 273 58 36 265 163 460 283 195 120
362 223 370 228 8 4 84 51 169 104 84 52 155 95 157 95 2 0 30 17 61 37 32 21
67 43 78 49 27 14 590 360 635 389 36 23 254 158 448 275 470 286 846 520 893
556 153 117 267 303 309 502 25 116 20 296 -10 400 -88 311 -330 546 -635 618
-56 13 -85 16 -180 19 -65 1 -139 -3 -180 -11z"/>
<path d="M11009 15576 c-2 -2 -35 -7 -74 -10 -38 -4 -86 -9 -105 -11 -19 -2
-66 -7 -105 -10 -38 -3 -83 -8 -100 -10 -16 -2 -57 -7 -90 -10 -33 -3 -78 -8
-100 -10 -46 -5 -205 -22 -285 -30 -30 -3 -82 -7 -115 -10 -33 -3 -76 -7 -95
-10 -19 -3 -64 -7 -100 -10 -36 -3 -81 -7 -100 -10 -53 -7 -123 -14 -187 -20
-32 -3 -74 -7 -93 -10 -19 -3 -66 -7 -105 -11 -38 -3 -81 -7 -95 -9 -14 -2
-59 -7 -100 -10 -41 -3 -86 -8 -100 -10 -14 -2 -59 -7 -100 -11 -87 -8 -103
-9 -190 -19 -36 -4 -81 -8 -100 -10 -81 -7 -177 -17 -197 -20 -12 -2 -57 -6
-100 -10 -43 -3 -89 -8 -103 -10 -14 -3 -52 -7 -85 -10 -33 -3 -78 -7 -100
-10 -51 -6 -135 -14 -200 -20 -27 -3 -70 -7 -95 -10 -76 -8 -122 -13 -195 -20
-38 -3 -86 -8 -105 -10 -19 -2 -57 -6 -85 -9 -138 -14 -163 -17 -205 -21 -25
-3 -67 -7 -95 -10 -27 -3 -72 -8 -100 -10 -27 -3 -90 -9 -140 -15 -49 -5 -119
-12 -155 -15 -36 -3 -81 -8 -100 -10 -55 -6 -149 -16 -292 -30 -78 -8 -151
-16 -188 -20 -19 -2 -66 -7 -105 -10 -38 -4 -81 -8 -95 -10 -14 -2 -56 -7 -95
-10 -38 -3 -86 -8 -105 -10 -63 -7 -175 -19 -300 -30 -36 -4 -76 -8 -90 -10
-14 -2 -59 -7 -100 -10 -41 -4 -88 -9 -105 -10 -16 -2 -61 -7 -100 -10 -38 -3
-77 -8 -85 -10 -8 -2 -53 -7 -100 -10 -47 -4 -92 -9 -101 -10 -9 -2 -52 -6
-95 -10 -43 -4 -86 -9 -94 -10 -8 -2 -53 -6 -100 -9 -47 -4 -96 -9 -110 -11
-30 -5 -102 -13 -190 -20 -35 -3 -78 -8 -95 -10 -16 -2 -57 -7 -90 -10 -75 -6
-150 -14 -190 -20 -16 -2 -66 -7 -109 -10 -44 -4 -87 -8 -96 -10 -9 -2 -54 -6
-101 -10 -46 -3 -91 -8 -99 -10 -8 -2 -49 -7 -90 -10 -179 -16 -242 -25 -309
-45 -277 -85 -495 -301 -581 -575 -30 -97 -35 -142 -33 -280 1 -135 27 -244
84 -358 90 -179 245 -327 429 -410 94 -42 251 -74 355 -71 51 1 197 14 226 19
9 2 52 6 95 10 43 4 90 8 104 10 14 2 57 7 95 10 144 14 228 22 295 30 19 2
62 7 95 10 33 3 76 8 95 10 19 2 67 7 105 11 39 3 78 8 88 10 9 1 54 6 100 9
45 3 93 8 107 10 14 2 54 6 90 10 36 3 81 8 100 10 19 2 64 7 100 10 36 3 76
8 90 10 14 2 59 7 100 10 41 3 86 8 100 10 14 2 59 7 100 10 41 4 82 8 90 10
8 2 55 6 104 10 49 4 96 8 105 10 9 1 54 6 101 10 47 3 92 8 100 10 15 4 79
11 190 20 50 4 90 8 190 20 19 2 64 7 100 10 36 4 76 8 90 10 14 2 59 6 100
10 41 4 86 8 100 10 14 2 59 6 100 10 41 3 92 8 113 11 21 3 55 7 75 9 71 6
277 26 302 30 14 2 59 6 100 10 41 4 86 8 100 10 25 4 98 12 195 20 91 8 170
16 195 20 14 2 59 7 100 10 41 4 82 9 90 10 8 1 51 6 95 9 44 4 91 9 105 11
14 2 57 7 95 10 39 4 81 9 95 10 14 1 61 6 105 10 44 3 91 8 104 10 14 3 54 7
90 10 36 3 82 8 101 10 19 3 60 7 90 10 107 10 146 14 195 20 28 3 73 7 100
10 54 4 130 12 210 21 28 3 66 7 85 9 19 2 69 7 110 11 41 3 82 8 90 9 8 2 49
6 90 10 97 9 143 13 202 20 26 3 72 7 101 10 101 10 142 14 192 20 28 3 75 7
105 10 30 3 66 7 80 10 14 2 63 7 110 11 47 3 87 7 90 9 3 1 46 6 95 10 50 3
101 8 115 10 14 2 54 7 90 10 36 4 81 8 100 10 19 2 64 7 100 10 175 17 219
25 308 57 171 60 302 156 409 298 62 82 135 236 143 302 1 4 6 22 11 40 16 58
22 210 10 283 -17 111 -20 122 -47 193 -99 264 -321 465 -594 537 -58 15 -319
32 -331 21z"/>
<path d="M25329 14716 c-2 -2 -24 -6 -49 -9 -25 -2 -74 -12 -110 -22 -73 -19
-240 -93 -240 -106 0 -5 -4 -9 -9 -9 -8 0 -887 -535 -1121 -683 -30 -19 -273
-168 -540 -332 -753 -462 -849 -521 -1160 -710 -80 -49 -152 -94 -160 -100 -8
-7 -35 -24 -60 -38 -44 -24 -311 -187 -380 -232 -44 -28 -189 -117 -212 -130
-58 -32 -268 -168 -297 -192 -156 -129 -266 -312 -302 -504 -14 -78 -19 -229
-8 -278 4 -20 10 -52 13 -73 14 -93 78 -233 150 -328 173 -229 424 -354 703
-349 112 2 175 13 272 46 85 29 119 47 284 150 66 40 123 73 128 73 5 0 9 4 9
9 0 5 8 11 18 14 9 3 60 33 112 66 52 33 167 103 255 157 88 53 225 137 305
187 80 49 183 113 230 142 47 29 139 85 205 126 66 41 128 79 137 84 71 42
114 69 473 291 88 54 169 104 180 110 18 10 203 123 350 214 33 21 191 118
350 215 160 97 306 187 325 199 34 22 97 61 335 206 413 253 392 239 478 319
115 109 199 253 243 418 28 105 26 322 -4 428 -46 159 -115 278 -225 388 -124
122 -265 198 -442 237 -49 11 -228 23 -236 16z"/>
<path d="M11001 13284 c-238 -60 -410 -189 -556 -419 -38 -61 -110 -173 -160
-250 -138 -212 -318 -493 -335 -520 -16 -26 -357 -557 -452 -703 -71 -109
-228 -355 -248 -387 -8 -13 -105 -164 -215 -334 -110 -171 -240 -374 -290
-451 -49 -77 -236 -367 -415 -644 -179 -278 -336 -523 -350 -545 -14 -22 -53
-84 -88 -138 -35 -54 -120 -187 -190 -295 -377 -587 -498 -775 -620 -963 -28
-44 -116 -180 -194 -302 -263 -410 -351 -546 -539 -838 -102 -159 -198 -313
-213 -342 -102 -203 -118 -450 -42 -671 100 -291 360 -512 665 -566 74 -13
231 -14 301 -1 132 24 292 97 391 178 114 94 134 122 479 662 67 105 147 229
178 277 32 49 100 154 152 235 52 82 126 198 166 258 39 61 205 319 369 575
334 522 393 612 421 654 10 16 26 39 34 51 8 13 30 47 48 76 18 30 55 88 82
129 27 41 68 104 90 140 23 36 58 91 78 122 105 164 303 471 347 540 75 117
358 557 444 690 42 65 106 164 142 220 36 57 91 141 121 188 30 47 112 175
183 285 71 110 202 314 292 453 90 140 163 256 163 259 0 2 6 10 13 18 6 7
134 203 282 434 149 232 301 470 339 529 154 239 192 355 190 577 -3 382 -256
706 -637 816 -113 33 -304 34 -426 3z"/>
<path d="M8098 13149 c-164 -34 -311 -114 -431 -232 -62 -62 -126 -154 -335
-480 -166 -260 -917 -1427 -984 -1529 -37 -57 -72 -112 -78 -123 -5 -11 -37
-60 -69 -110 -33 -49 -81 -124 -107 -165 -26 -41 -77 -120 -113 -175 -36 -55
-70 -107 -76 -116 -26 -43 -129 -204 -258 -405 -78 -121 -146 -228 -152 -236
-5 -9 -48 -75 -95 -147 -47 -72 -89 -139 -95 -149 -5 -9 -19 -30 -31 -47 -11
-16 -130 -201 -264 -410 -134 -209 -277 -432 -318 -495 -103 -159 -113 -174
-346 -538 -215 -334 -240 -379 -275 -497 -89 -301 10 -663 238 -866 73 -66 83
-74 147 -111 149 -86 270 -120 429 -121 134 0 186 7 292 43 197 66 340 183
475 388 88 132 212 325 238 367 8 14 42 67 75 118 134 208 392 608 444 690 31
48 103 160 161 250 105 161 261 405 290 452 8 13 116 180 239 372 200 309 399
619 570 885 31 48 100 156 154 240 54 84 176 273 270 420 95 147 323 502 507
788 425 659 404 626 436 685 30 57 71 160 78 201 3 15 10 50 16 78 16 76 5
267 -20 354 -88 309 -319 537 -625 614 -111 28 -273 31 -387 7z"/>
<path d="M5214 12999 c-281 -48 -452 -173 -643 -470 -51 -79 -137 -214 -192
-299 -100 -155 -142 -221 -339 -527 -58 -90 -141 -219 -185 -288 -78 -121
-323 -502 -417 -647 -26 -40 -65 -102 -88 -138 -23 -36 -63 -99 -90 -140 -27
-41 -67 -104 -90 -140 -52 -82 -65 -102 -355 -552 -131 -205 -280 -436 -330
-513 -50 -77 -104 -161 -120 -187 -17 -26 -71 -112 -121 -190 -118 -184 -162
-274 -179 -370 -3 -12 -9 -44 -13 -70 -15 -77 -6 -254 17 -340 71 -274 259
-486 521 -591 36 -14 76 -28 90 -31 14 -3 36 -8 50 -11 44 -12 226 -20 271
-13 165 25 261 59 379 137 125 81 186 149 313 346 29 45 94 146 145 225 51 80
172 267 268 415 95 149 187 293 204 320 17 28 57 91 90 140 32 50 78 121 102
158 24 38 50 79 58 92 84 131 174 270 330 512 101 159 230 358 285 443 56 85
104 162 108 170 4 8 38 61 75 117 98 150 614 951 632 982 9 14 37 59 64 99 78
120 135 251 153 358 12 65 8 296 -5 335 -7 20 -14 45 -16 56 -10 52 -63 165
-112 238 -58 88 -123 158 -199 216 -59 44 -199 119 -224 119 -9 0 -21 4 -26 9
-12 10 -82 27 -150 37 -93 12 -161 11 -261 -7z"/>
<path d="M15070 12524 c-36 -8 -87 -21 -115 -30 -50 -16 -205 -90 -215 -102
-3 -4 -22 -20 -44 -36 -146 -109 -257 -277 -307 -468 -31 -116 -32 -308 -1
-425 19 -72 68 -190 104 -248 98 -155 254 -282 433 -350 39 -15 79 -31 90 -35
11 -5 148 -55 305 -111 411 -147 424 -152 885 -319 964 -349 1107 -400 1350
-488 77 -27 158 -57 180 -65 22 -9 162 -59 310 -112 149 -53 279 -100 290
-105 11 -5 76 -29 145 -53 69 -25 206 -75 305 -110 99 -36 313 -113 475 -172
162 -58 318 -114 345 -125 28 -10 246 -89 485 -175 239 -86 444 -160 455 -165
11 -5 40 -16 65 -24 25 -8 83 -29 130 -46 47 -18 96 -35 110 -40 14 -4 75 -26
135 -48 298 -108 345 -126 410 -148 39 -13 79 -28 90 -33 11 -5 124 -46 250
-91 127 -45 239 -85 250 -90 42 -18 422 -154 485 -172 86 -26 298 -33 390 -13
403 88 683 417 695 817 10 340 -173 650 -472 802 -29 14 -215 85 -415 157
-200 72 -370 133 -378 136 -8 4 -17 7 -20 8 -3 1 -17 7 -33 13 -15 6 -53 20
-85 31 -31 10 -158 56 -282 101 -323 118 -870 315 -1195 431 -154 56 -289 105
-300 110 -11 5 -76 29 -145 53 -69 24 -143 51 -165 59 -22 9 -130 48 -240 87
-110 40 -240 87 -290 105 -49 18 -162 59 -250 90 -88 31 -169 60 -180 65 -11
5 -159 59 -330 120 -170 61 -326 117 -345 124 -48 19 -126 47 -465 169 -690
249 -1259 454 -1315 475 -8 3 -17 6 -20 7 -3 1 -12 5 -20 8 -16 7 -387 140
-675 243 -99 36 -189 69 -200 74 -11 5 -31 12 -45 15 -14 4 -38 13 -55 21 -48
21 -181 64 -238 76 -77 16 -253 17 -327 2z"/>
<path d="M12967 11954 c-1 -1 -29 -5 -62 -9 -77 -8 -221 -56 -300 -100 -133
-75 -260 -203 -334 -340 -37 -67 -75 -165 -85 -216 -2 -13 -7 -40 -11 -59 -15
-82 -12 -219 9 -325 3 -16 82 -257 176 -535 95 -278 180 -530 190 -560 10 -30
108 -323 219 -650 111 -327 226 -667 256 -755 29 -88 140 -414 245 -725 428
-1266 558 -1650 704 -2085 43 -126 81 -239 86 -250 5 -11 43 -123 86 -250 270
-809 609 -1806 636 -1871 69 -171 228 -339 403 -426 57 -29 159 -65 204 -73
189 -33 330 -23 488 36 345 130 567 459 558 830 -4 149 28 46 -357 1184 -115
341 -263 780 -330 975 -189 559 -290 858 -367 1090 -40 118 -76 224 -81 235
-5 11 -47 135 -94 275 -46 140 -166 496 -266 790 -100 294 -208 614 -240 710
-32 96 -136 402 -230 680 -94 278 -188 557 -210 620 -431 1280 -450 1334 -521
1437 -69 99 -184 201 -301 266 -42 23 -215 90 -228 87 -3 0 -25 3 -50 6 -44 7
-188 13 -193 8z"/>
<path d="M15916 9708 c-343 -42 -621 -271 -725 -598 -124 -391 49 -822 410
-1019 47 -25 270 -114 319 -126 8 -2 233 -83 500 -180 452 -164 692 -251 950
-344 58 -21 245 -89 415 -151 171 -62 364 -132 430 -155 66 -24 171 -62 233
-84 270 -98 345 -125 472 -171 74 -26 286 -103 470 -170 184 -67 346 -126 360
-130 14 -5 75 -26 135 -48 61 -22 281 -102 490 -177 209 -75 389 -141 400
-145 11 -5 151 -56 310 -114 160 -57 346 -124 415 -149 147 -53 186 -64 260
-74 275 -35 534 50 726 241 272 271 335 664 162 1011 -22 44 -43 82 -47 85 -3
3 -20 23 -36 45 -66 88 -179 186 -275 236 -25 13 -47 24 -50 24 -3 1 -18 7
-35 14 -16 7 -59 24 -95 37 -392 140 -659 237 -705 254 -45 17 -379 138 -1465
530 -201 72 -387 140 -415 150 -27 11 -261 95 -520 189 -258 93 -528 191 -600
217 -71 26 -152 55 -180 65 -27 9 -94 33 -147 53 -54 19 -175 63 -270 96 -95
34 -182 66 -193 71 -11 4 -135 49 -275 99 -140 50 -264 95 -275 100 -11 4 -85
31 -165 60 -170 60 -307 110 -480 173 -235 86 -344 105 -504 85z"/>
<path d="M11158 9564 c-425 -76 -729 -460 -705 -891 8 -146 -10 -85 267 -903
255 -755 246 -727 385 -1140 69 -206 129 -382 132 -390 3 -8 7 -19 9 -25 1 -5
30 -91 64 -190 97 -286 308 -910 346 -1025 19 -58 37 -112 40 -120 4 -8 62
-181 131 -385 68 -203 128 -379 133 -390 5 -11 47 -135 94 -275 161 -483 444
-1315 466 -1370 59 -150 210 -317 361 -403 150 -84 284 -118 454 -113 319 9
591 177 740 458 87 167 116 341 90 543 -6 48 -67 235 -321 985 -157 465 -420
1242 -427 1260 -3 8 -35 103 -71 210 -35 107 -149 443 -251 745 -102 303 -246
728 -320 945 -73 217 -179 530 -235 695 -55 165 -117 347 -136 405 -19 58 -39
114 -44 125 -4 11 -11 29 -13 40 -7 29 -216 646 -229 675 -55 127 -121 225
-208 308 -58 56 -158 126 -223 156 -46 21 -177 66 -177 61 0 -2 -15 1 -32 6
-53 17 -236 18 -320 3z"/>
<path d="M9529 7196 c-2 -2 -24 -6 -49 -10 -77 -9 -102 -16 -180 -47 -262
-105 -440 -303 -521 -581 -27 -93 -34 -292 -14 -388 13 -60 60 -204 308 -935
107 -317 132 -391 397 -1175 105 -311 209 -617 230 -680 22 -63 120 -356 220
-650 99 -294 215 -636 257 -760 85 -253 115 -324 169 -407 55 -84 182 -205
266 -254 85 -50 223 -104 294 -116 95 -15 293 -8 375 15 306 83 540 317 620
619 22 83 31 273 17 364 -9 57 -18 85 -553 1664 -103 303 -206 609 -230 680
-24 72 -130 384 -235 695 -105 311 -211 624 -235 695 -147 440 -251 738 -278
795 -107 222 -314 387 -572 456 -53 14 -276 30 -286 20z"/>
<path d="M16688 6894 c-2 -1 -17 -5 -33 -8 -71 -13 -94 -20 -165 -49 -229 -93
-410 -284 -491 -520 -34 -99 -40 -132 -44 -264 -12 -369 217 -701 575 -832 30
-11 213 -76 405 -146 193 -69 373 -135 400 -145 28 -11 109 -40 180 -66 72
-25 285 -102 475 -171 190 -68 426 -154 525 -189 99 -36 196 -71 215 -79 19
-7 132 -48 250 -90 118 -43 258 -93 310 -112 52 -19 109 -39 125 -45 17 -5 39
-14 50 -18 11 -5 191 -70 400 -145 209 -75 403 -145 430 -155 28 -10 127 -46
220 -80 94 -33 179 -64 190 -69 52 -23 192 -62 243 -68 228 -27 416 15 597
132 184 119 327 322 371 526 24 114 26 278 5 374 -53 232 -183 420 -380 548
-79 52 -112 66 -351 152 -102 37 -372 134 -600 217 -228 82 -496 179 -595 215
-99 35 -196 71 -215 78 -19 8 -116 43 -215 78 -99 36 -319 115 -490 177 -170
62 -416 150 -545 197 -129 47 -278 101 -330 120 -52 19 -133 48 -180 65 -47
16 -107 38 -135 48 -27 10 -183 67 -345 125 -162 58 -302 109 -310 112 -8 3
-19 7 -25 8 -5 2 -35 13 -65 25 -98 39 -224 61 -341 59 -59 -1 -109 -3 -111
-5z"/>
</g>
</svg>
