<?xml version="1.0" encoding="UTF-8" standalone="no"?>
<!DOCTYPE svg PUBLIC "-//W3C//DTD SVG 1.1//EN" "http://www.w3.org/Graphics/SVG/1.1/DTD/svg11.dtd">
<svg width="100%" height="100%" viewBox="0 0 800 512" version="1.1" xmlns="http://www.w3.org/2000/svg" xmlns:xlink="http://www.w3.org/1999/xlink" xml:space="preserve" xmlns:serif="http://www.serif.com/" style="fill-rule:evenodd;clip-rule:evenodd;stroke-linejoin:round;stroke-miterlimit:2;">
    <g transform="matrix(1.74025,0,0,1.74025,-241.846,28.8831)">
        <g transform="matrix(1,0,0,1,0,-0.30375)">
            <path d="M191.987,5.082L165.128,5.082L165.128,240.207L191.987,240.207L191.987,261.582L138.972,261.582L138.972,-16.293L191.987,-16.293L191.987,5.082Z" style="fill:rgb(51,51,51);fill-rule:nonzero;"/>
        </g>
        <path d="M331.628,164.269L245.847,164.269L226.581,217.707L198.737,217.707L276.925,12.957L300.55,12.957L378.878,217.707L351.175,217.707L331.628,164.269ZM254.003,142.05L323.612,142.05L288.737,46.285L254.003,142.05Z" style="fill:rgb(51,51,51);fill-rule:nonzero;"/>
        <path d="M396.175,140.363C396.175,116.644 401.659,97.777 412.628,83.761C423.597,69.746 438.128,62.738 456.222,62.738C474.784,62.738 489.269,69.3 499.675,82.425L500.94,65.55L524.706,65.55L524.706,214.05C524.706,233.738 518.87,249.254 507.198,260.597C495.526,271.941 479.847,277.613 460.159,277.613C449.19,277.613 438.456,275.269 427.956,270.582C417.456,265.894 409.44,259.472 403.909,251.316L417.409,235.707C428.565,249.488 442.206,256.379 458.331,256.379C470.987,256.379 480.855,252.816 487.933,245.691C495.011,238.566 498.55,228.535 498.55,215.597L498.55,202.519C488.144,214.519 473.94,220.519 455.94,220.519C438.128,220.519 423.714,213.347 412.698,199.004C401.683,184.66 396.175,165.113 396.175,140.363ZM422.331,143.316C422.331,160.472 425.847,173.949 432.878,183.746C439.909,193.543 449.753,198.441 462.409,198.441C478.815,198.441 490.862,190.988 498.55,176.082L498.55,106.613C490.581,92.082 478.628,84.816 462.69,84.816C450.034,84.816 440.144,89.738 433.019,99.582C425.894,109.425 422.331,124.004 422.331,143.316Z" style="fill:rgb(51,51,51);fill-rule:nonzero;"/>
        <g transform="matrix(1,0,0,1,0,-0.30375)">
            <path d="M545.519,-16.293L598.675,-16.293L598.675,261.582L545.519,261.582L545.519,240.207L572.659,240.207L572.659,5.082L545.519,5.082L545.519,-16.293Z" style="fill:rgb(51,51,51);fill-rule:nonzero;"/>
        </g>
    </g>
</svg>
